<?xml version="1.0" standalone="no"?>
<!DOCTYPE svg PUBLIC "-//W3C//DTD SVG 20010904//EN"
 "http://www.w3.org/TR/2001/REC-SVG-20010904/DTD/svg10.dtd">
<svg version="1.0" xmlns="http://www.w3.org/2000/svg"
 width="300.000000pt" height="300.000000pt" viewBox="0 0 300.000000 300.000000"
 preserveAspectRatio="xMidYMid meet">
<metadata>
Created by potrace 1.14, written by Peter Selinger 2001-2017
</metadata>
<g transform="translate(0.000000,300.000000) scale(0.100000,-0.100000)"
fill="#000000" stroke="none">
<path d="M0 1500 l0 -1500 1500 0 1500 0 0 1500 0 1500 -1500 0 -1500 0 0
-1500z m731 562 c171 -45 295 -176 346 -364 21 -79 24 -288 4 -368 -47 -192
-178 -327 -366 -375 -44 -11 -113 -15 -267 -15 l-208 0 0 570 0 570 213 -1
c167 0 226 -4 278 -17z m1403 -425 l141 -438 32 98 c17 54 82 252 143 441
l111 342 110 0 c89 0 110 -3 107 -14 -2 -7 -93 -264 -203 -570 l-200 -556
-100 0 -100 0 -174 490 -174 490 -249 0 -248 0 0 -155 0 -155 235 0 236 0 -3
-77 -3 -78 -232 -3 -233 -2 0 -175 0 -175 275 0 275 0 0 -80 0 -80 -380 0
-380 0 0 570 0 570 437 -2 437 -3 140 -438z"/>
<path d="M450 1510 l0 -412 108 4 c124 5 177 23 234 82 76 79 103 183 96 369
-6 140 -27 209 -83 274 -53 62 -118 86 -247 91 l-108 4 0 -412z"/>
</g>
</svg>
